<svg width="100" height="100" viewBox="0 0 100 100" fill="none" xmlns="http://www.w3.org/2000/svg">
<path fill-rule="evenodd" clip-rule="evenodd" d="M75.4954 14.2857L90.8163 0H100V85.7143C100 88.7075 98.6394 91.7687 95.9184 94.898C92.9252 98.2993 89.5238 100 85.7143 100H81.6327V85.7143H83.6735V14.2857H75.4954ZM56.38 14.2857H75.4954L45.5102 42.2449V44.2857H67.3469C71.2925 44.2857 74.6258 45.7143 77.3469 48.5714C80.2041 51.2925 81.6327 54.6259 81.6327 58.5714V85.7143H65.3061V57.1429H16.3265V100H0V0H16.3265V54.4898L56.38 14.2857ZM70.6122 0L56.38 14.2857H32.6531V0H70.6122ZM65.3061 100H46.9388C43.1292 100 39.7959 98.5714 36.9388 95.7143C34.0816 92.8571 32.6531 89.5238 32.6531 85.7143V71.4286H48.9796V85.7143H65.3061V100Z" fill="#22D3EE"/>
</svg>
